<svg xmlns="http://www.w3.org/2000/svg" viewBox="0 0 15.22 21.77"><defs><style>.cls-1{fill:#838383}</style></defs><g id="Layer_2" data-name="Layer 2"><g id="Layer_2-2" data-name="Layer 2"><path id="Path_65" data-name="Path 65" class="cls-1" d="M7.69,19.77a.31.31,0,0,1-.24-.1l-5-5.12a.33.33,0,0,1,0-.47l5-5a.34.34,0,0,1,.48,0l5,5a.33.33,0,0,1,0,.47l-5,5.12a.31.31,0,0,1-.24.1ZM3.14,14.32,7.69,19l4.56-4.64L7.69,9.76Z"/><path id="Path_66" data-name="Path 66" class="cls-1" d="M7.69,21.77a7.26,7.26,0,0,1-5.25-2.2,7.28,7.28,0,0,1,0-10.41,7.39,7.39,0,0,1,10.45-.09l.08.08a6.84,6.84,0,0,1,2.2,5.17A7.2,7.2,0,0,1,13,19.57a7.29,7.29,0,0,1-5.26,2.2Zm0-13.92A6.42,6.42,0,0,0,3.07,9.79a6.38,6.38,0,0,0-.13,9l.14.13a6.49,6.49,0,0,0,9.18.05l.05-.06a6.28,6.28,0,0,0,1.94-4.62A5.93,5.93,0,0,0,12.32,9.8a6.41,6.41,0,0,0-4.63-2Z"/><g id="Pendants"><path id="Path_32" data-name="Path 32" class="cls-1" d="M7.65,3A14,14,0,0,1,.18.72.4.4,0,0,1,.05.19.37.37,0,0,1,.56.05h0C5.29,3,10,3,14.64.06a.37.37,0,0,1,.52.12h0A.4.4,0,0,1,15,.72,13.64,13.64,0,0,1,7.65,3Z"/><path id="Path_33" data-name="Path 33" class="cls-1" d="M7.71,7.12A2.17,2.17,0,0,1,6,6.38a2.17,2.17,0,0,1-.62-1.52A3.17,3.17,0,0,1,6,3.2a.35.35,0,0,1,.1-.11,2.49,2.49,0,0,1,1.63-.6,2.19,2.19,0,0,1,1.47.63A2.74,2.74,0,0,1,9.9,4.85a1.89,1.89,0,0,1-.72,1.53,1.9,1.9,0,0,1-1.47.73ZM6.59,3.67a2.21,2.21,0,0,0-.41,1.19,1.32,1.32,0,0,0,.39,1,1.45,1.45,0,0,0,1.14.51,1.22,1.22,0,0,0,.9-.47l.08-.08a1.08,1.08,0,0,0,.45-.93,1.81,1.81,0,0,0-.52-1.21,1.46,1.46,0,0,0-.91-.38A1.69,1.69,0,0,0,6.59,3.67Z"/></g></g></g></svg>